<svg width="976" height="976" viewBox="0 0 976 976" fill="none" xmlns="http://www.w3.org/2000/svg">
<circle cx="488" cy="488" r="488" fill="#0B0E11"/>
<path d="M313.08 685V334C313.08 328.4 310.68 324 305.88 320.8L259.68 288.4V287.2H449.28V288.4L403.08 320.8C398.28 324.4 395.88 328.8 395.88 334V668.2C395.88 717.8 381.88 757 353.88 785.8C325.88 814.6 287.28 831.2 238.08 835.6L237.48 834.4C287.88 809.2 313.08 759.4 313.08 685ZM603.068 715C562.268 715 523.468 709.6 486.668 698.8V565H487.868L553.268 691.6C556.868 698 561.268 701.6 566.468 702.4C580.068 704 590.268 704.8 597.068 704.8C623.868 704.8 645.668 698.4 662.468 685.6C679.268 672.4 687.668 653.4 687.668 628.6C687.668 609.4 681.468 593.8 669.068 581.8C656.668 569.4 636.468 556.4 608.468 542.8L571.868 525.4C508.268 495.8 476.468 454.2 476.468 400.6C476.468 365 489.468 336.2 515.468 314.2C541.468 292.2 575.668 281.2 618.068 281.2C653.268 281.2 689.468 285.8 726.668 295V424H725.468L657.668 302.8C654.068 296 649.668 292.4 644.468 292C639.668 291.6 632.668 291.4 623.468 291.4C599.068 291.4 579.468 298.2 564.668 311.8C549.868 325.4 542.468 343.8 542.468 367C542.468 385.4 548.068 400.6 559.268 412.6C570.868 424.2 587.668 435.2 609.668 445.6L654.068 466.6C688.468 483 714.268 499.8 731.468 517C748.668 534.2 757.268 557 757.268 585.4C757.268 623 743.068 654 714.668 678.4C686.668 702.8 649.468 715 603.068 715Z" fill="#ECECEC"/>
</svg>
